C:\Users\r0593348\3dpredictsim\Results\Batchsim_tmt_linear_v2\Pog_s1_tmt_bCst_d02_k250_ig24_act_GRF.mot
nRows=25
nColumns=19

name C:\Users\r0593348\3dpredictsim\Results\Batchsim_tmt_linear_v2\Pog_s1_tmt_bCst_d02_k250_ig24_act_GRF.mot
datacolumns 19
datarows 25
range 0.5451779846 0.8068634172
endheader
time 	ground_force_vx	ground_force_vy	ground_force_vz	ground_force_px	ground_force_py	ground_force_pz	1_ground_force_vx	1_ground_force_vy	1_ground_force_vz	1_ground_force_px	1_ground_force_py	1_ground_force_pz	ground_torque_x	ground_torque_y	ground_torque_z	1_ground_torque_x	1_ground_torque_y	1_ground_torque_z
        0.5451779846	       37.7750622660	      268.7951045708	        9.2823317633	        0.3446731773	        0.0000000000	        0.0458137678	     -136.8863589430	      107.7324698888	       -3.5705406011	        0.9837753597	        0.0000000000	       -0.0451748766	        0.0000000000	        0.0000000000	        0.0000000000	        0.0000000000	        0.0000000000	        0.0000000000	
        0.5560815443	       40.6080893879	      242.3702363957	        9.6068166857	        0.3448450309	        0.0000000000	        0.0458207694	     -193.2296197422	      181.9245217365	       -7.2124671838	        0.9662667228	        0.0000000000	       -0.0496990286	        0.0000000000	        0.0000000000	        0.0000000000	        0.0000000000	        0.0000000000	        0.0000000000	
        0.5669851040	       42.6370207536	      208.4619434204	       14.7247685440	        0.3451730930	        0.0000000000	        0.0461223920	     -139.9040576452	      381.7313817829	       -0.1406110036	        0.9297526423	        0.0000000000	       -0.0564285776	        0.0000000000	        0.0000000000	        0.0000000000	        0.0000000000	        0.0000000000	        0.0000000000	
        0.5778886637	       38.8167431619	      169.1612767757	       18.9857536120	        0.3453009866	        0.0000000000	        0.0464537384	     -124.5704639676	      576.2650367683	       10.0473068148	        0.9109630044	        0.0000000000	       -0.0583486675	        0.0000000000	        0.0000000000	        0.0000000000	        0.0000000000	        0.0000000000	        0.0000000000	
        0.5887922234	       28.9751036091	      120.9197313730	       20.4028121710	        0.3452541021	        0.0000000000	        0.0468135253	     -129.4182581730	      737.6346351979	       14.4606296429	        0.9027747381	        0.0000000000	       -0.0584309823	        0.0000000000	        0.0000000000	        0.0000000000	        0.0000000000	        0.0000000000	        0.0000000000	
        0.5996957830	       11.7180819541	       61.3825143507	       16.6367099767	        0.3446798110	        0.0000000000	        0.0473897781	     -137.0132606771	      864.0904675152	       14.9243788047	        0.8966309639	        0.0000000000	       -0.0582912740	        0.0000000000	        0.0000000000	        0.0000000000	        0.0000000000	        0.0000000000	        0.0000000000	
        0.6105993427	       -6.9874617872	       11.4888076794	        5.1364001342	        0.3380897514	        0.0000000000	        0.0480291812	     -134.1730199470	      921.1917618711	       13.1534762036	        0.8927348337	        0.0000000000	       -0.0578722360	        0.0000000000	        0.0000000000	        0.0000000000	        0.0000000000	        0.0000000000	        0.0000000000	
        0.6215029024	      -12.0233468303	       10.3064759062	        0.9216705036	        0.3410551408	        0.0000000000	        0.0440737007	     -125.2586921035	      921.7445505148	       10.0906745540	        0.8904040456	        0.0000000000	       -0.0573060781	        0.0000000000	        0.0000000000	        0.0000000000	        0.0000000000	        0.0000000000	        0.0000000000	
        0.6324064621	      -16.6843077229	       12.1307573274	        0.5281447150	        0.3532152814	        0.0000000000	        0.0435812197	     -111.1020429772	      904.8725633872	        8.1981606559	        0.8887727822	        0.0000000000	       -0.0566472213	        0.0000000000	        0.0000000000	        0.0000000000	        0.0000000000	        0.0000000000	        0.0000000000	
        0.6433100218	      -18.0321878909	       11.5974283218	        0.3055132502	        0.3698873821	        0.0000000000	        0.0434114787	      -97.0071214710	      874.7235243850	        9.5306276194	        0.8887407460	        0.0000000000	       -0.0561752144	        0.0000000000	        0.0000000000	        0.0000000000	        0.0000000000	        0.0000000000	        0.0000000000	
        0.6542135815	      -17.1313181108	        9.9612981225	        0.0201540165	        0.0000000000	        0.0000000000	        0.0000000000	      -84.4303529158	      839.7352326905	       11.9519853742	        0.8901859360	        0.0000000000	       -0.0559092634	        0.0000000000	        0.0000000000	        0.0000000000	        0.0000000000	        0.0000000000	        0.0000000000	
        0.6651171412	      -13.1627676712	        7.0428672936	       -0.1202097785	        0.0000000000	        0.0000000000	        0.0000000000	      -73.2813719312	      805.3817927641	       13.8709011839	        0.8925792419	        0.0000000000	       -0.0557800296	        0.0000000000	        0.0000000000	        0.0000000000	        0.0000000000	        0.0000000000	        0.0000000000	
        0.6760207009	       -8.1957304593	        4.1365332404	       -0.0722061433	        0.0000000000	        0.0000000000	        0.0000000000	      -63.3686204776	      774.4764404890	       14.5797963350	        0.8954007172	        0.0000000000	       -0.0557214100	        0.0000000000	        0.0000000000	        0.0000000000	        0.0000000000	        0.0000000000	        0.0000000000	
        0.6869242606	       -5.2557283690	        2.5260572645	       -0.0483118201	        0.0000000000	        0.0000000000	        0.0000000000	      -55.8716911367	      748.5199170325	       15.6066557064	        0.8981752273	        0.0000000000	       -0.0556482026	        0.0000000000	        0.0000000000	        0.0000000000	        0.0000000000	        0.0000000000	        0.0000000000	
        0.6978278203	       -3.8768992588	        1.7923127965	       -0.0316576950	        0.0000000000	        0.0000000000	        0.0000000000	      -49.0013264940	      725.1752031011	       16.8731445807	        0.9005998744	        0.0000000000	       -0.0555361847	        0.0000000000	        0.0000000000	        0.0000000000	        0.0000000000	        0.0000000000	        0.0000000000	
        0.7087313800	       -2.8529760563	        1.2766500505	       -0.0203255943	        0.0000000000	        0.0000000000	        0.0000000000	      -42.3769057743	      702.2814730663	       18.1642268505	        0.9026900198	        0.0000000000	       -0.0553983430	        0.0000000000	        0.0000000000	        0.0000000000	        0.0000000000	        0.0000000000	        0.0000000000	
        0.7196349397	       -2.0412175989	        0.8879224244	       -0.0128399586	        0.0000000000	        0.0000000000	        0.0000000000	      -36.2963670936	      679.1998822132	       19.0185713022	        0.9046302203	        0.0000000000	       -0.0552802683	        0.0000000000	        0.0000000000	        0.0000000000	        0.0000000000	        0.0000000000	        0.0000000000	
        0.7305384993	       -1.5020503977	        0.6375699753	       -0.0086222343	        0.0000000000	        0.0000000000	        0.0000000000	      -30.5090496772	      657.1983451263	       19.8428086562	        0.9064428488	        0.0000000000	       -0.0551769391	        0.0000000000	        0.0000000000	        0.0000000000	        0.0000000000	        0.0000000000	        0.0000000000	
        0.7414420590	       -1.1751674412	        0.4885363081	       -0.0060086247	        0.0000000000	        0.0000000000	        0.0000000000	      -25.1373805136	      636.9454702368	       20.7419941630	        0.9081206594	        0.0000000000	       -0.0550849712	        0.0000000000	        0.0000000000	        0.0000000000	        0.0000000000	        0.0000000000	        0.0000000000	
        0.7523456187	       -0.9920515838	        0.4052906804	       -0.0050329723	        0.0000000000	        0.0000000000	        0.0000000000	      -20.1772914396	      618.8385379432	       21.7123851912	        0.9096376219	        0.0000000000	       -0.0550094837	        0.0000000000	        0.0000000000	        0.0000000000	        0.0000000000	        0.0000000000	        0.0000000000	
        0.7632491784	       -0.9035623736	        0.3636401756	       -0.0053125855	        0.0000000000	        0.0000000000	        0.0000000000	      -15.3728688085	      603.0382282600	       22.7114153863	        0.9109713005	        0.0000000000	       -0.0549489184	        0.0000000000	        0.0000000000	        0.0000000000	        0.0000000000	        0.0000000000	        0.0000000000	
        0.7741527381	       -0.8782307387	        0.3488153682	       -0.0067965276	        0.0000000000	        0.0000000000	        0.0000000000	      -10.7658699776	      588.5277328517	       23.3999709866	        0.9122064509	        0.0000000000	       -0.0548748099	        0.0000000000	        0.0000000000	        0.0000000000	        0.0000000000	        0.0000000000	        0.0000000000	
        0.7850562978	       -0.8943541988	        0.3510747369	       -0.0092795860	        0.0000000000	        0.0000000000	        0.0000000000	       -6.3739783937	      574.8358211782	       23.5947537103	        0.9133956236	        0.0000000000	       -0.0547639565	        0.0000000000	        0.0000000000	        0.0000000000	        0.0000000000	        0.0000000000	        0.0000000000	
        0.7959598575	       -0.9419794248	        0.3658305386	       -0.0127073934	        0.0000000000	        0.0000000000	        0.0000000000	       -2.0012927430	      562.2225773784	       23.3246929857	        0.9145268711	        0.0000000000	       -0.0546066080	        0.0000000000	        0.0000000000	        0.0000000000	        0.0000000000	        0.0000000000	        0.0000000000	
        0.8068634172	       -1.0292843705	        0.3956216227	       -0.0173838849	        0.0000000000	        0.0000000000	        0.0000000000	        2.4791383697	      550.9845921753	       22.6201272180	        0.9155944234	        0.0000000000	       -0.0543949341	        0.0000000000	        0.0000000000	        0.0000000000	        0.0000000000	        0.0000000000	        0.0000000000	
